<svg width="267" height="65" viewBox="0 0 267 65" fill="none" xmlns="http://www.w3.org/2000/svg">
<g clip-path="url(#clip0_1281_979)">
<g clip-path="url(#clip1_1281_979)">
<path fill-rule="evenodd" clip-rule="evenodd" d="M80.0306 34.3776V18.4387H87.2344V33.1358C87.2344 36.1995 88.7669 37.7122 92.4838 37.7122C96.2007 37.7122 97.7331 36.1995 97.7331 33.1358V18.4387H104.937V34.3776C104.937 40.7759 100.3 45.0799 92.4838 45.0799C84.7042 45.0799 80.0306 40.7759 80.0306 34.3776ZM128.696 29.3513C129.934 29.3513 130.63 27.9822 130.63 27.2792C130.63 26.5747 129.934 25.284 128.503 25.284C128.425 25.284 126.415 25.284 119.532 25.3625V29.3513H128.696ZM119.532 44.5279H112.262V18.5172C125.177 18.5557 128.194 18.4387 128.774 18.4387C134.805 18.4387 138.634 21.9598 138.634 26.7315C138.634 30.2127 136.933 33.6153 133.027 34.5152C133.723 36.8626 136.159 37.8394 138.48 37.2533V44.4879C131.866 45.9354 128.62 45.3478 126.066 35.4521H119.532V44.5264V44.5279ZM159.587 36.7457C161.408 36.7457 162.412 35.7718 162.412 34.8364C162.412 33.8995 161.483 33.0011 159.549 33.0011H151.446V36.6702C153.342 36.7072 158.88 36.7457 159.587 36.7457ZM160.516 28.2471C161.483 28.2471 162.003 27.4227 162.003 26.5998C162.003 25.8509 161.556 25.102 160.591 25.102C160.591 25.102 158.62 25.102 151.446 25.2145V28.2471H160.516ZM168.991 25.29C168.991 27.1608 168.211 28.959 166.537 29.819C168.508 31.0178 169.4 33.1136 169.4 35.2479C169.4 41.3872 163.676 43.7079 158.545 43.5954L144.494 43.4459V18.5127L158.768 18.4373C163.676 18.4373 168.991 19.5991 168.991 25.29ZM187.242 32.2478H194.006L190.881 25.6274H190.406L187.242 32.2478ZM196.536 37.5464H184.751L181.864 43.5999H173.795L185.819 18.4387H195.43L207.492 43.5999H199.424L196.536 37.5464ZM235.329 43.5999H228.822L217.453 29.5999V43.5999H210.422V18.4387H216.929L228.298 32.3632V18.4387H235.329V43.5999ZM266.095 43.5999H241.189V18.4387H265.494V25.4765H248.23V28.2383H262.163V33.8003H248.23V36.6006H266.095V43.5999Z" fill="white"/>
<path fill-rule="evenodd" clip-rule="evenodd" d="M46.3484 0.677979V36.2928C46.3484 42.3019 43.1472 47.5665 38.3417 50.5103C40.9788 46.146 42.3716 41.1307 42.3663 36.0175V0.677979L30.6603 5.38755V36.2928C30.6603 44.6108 22.1995 54.6974 14.2617 43.4889C13.1796 41.2477 12.6183 38.7864 12.6209 36.2928V1.6193L0.916382 6.32887V36.019C0.916382 51.647 13.7065 64.3208 29.4853 64.3208C45.2642 64.3208 58.0543 51.6485 58.0543 36.0175V5.38755L46.3484 0.677979Z" fill="white"/>
</g>
</g>
<defs>
<clipPath id="clip0_1281_979">
<rect width="265.179" height="63.6429" fill="white" transform="translate(0.916626 0.678467)"/>
</clipPath>
<clipPath id="clip1_1281_979">
<rect width="265.179" height="63.6429" fill="white" transform="translate(0.916504 0.678223)"/>
</clipPath>
</defs>
</svg>
